<svg width="213" height="146" viewBox="0 0 213 146" fill="none" xmlns="http://www.w3.org/2000/svg">
<path d="M15 66L33 45" stroke="#EEEEEE" stroke-width="6" stroke-linecap="round"/>
<path d="M63 59L44 44" stroke="#EEEEEE" stroke-width="6" stroke-linecap="round"/>
<path d="M77 61L103 55" stroke="#EEEEEE" stroke-width="6" stroke-linecap="round"/>
<path d="M126 16L119 39" stroke="#EEEEEE" stroke-width="6" stroke-linecap="round"/>
<path d="M151 41L127 47" stroke="#EEEEEE" stroke-width="6" stroke-linecap="round"/>
<path d="M161 50L156 85" stroke="#EEEEEE" stroke-width="6" stroke-linecap="round"/>
<path d="M163 38L193 83" stroke="#EEEEEE" stroke-width="6" stroke-linecap="round"/>
<path d="M162 92L188 92" stroke="#EEEEEE" stroke-width="6" stroke-linecap="round"/>
<path d="M148 98L119 119" stroke="#EEEEEE" stroke-width="6" stroke-linecap="round"/>
<path d="M101 90L155 132" stroke="#EEEEEE" stroke-width="6" stroke-linecap="round"/>
<path d="M183 126L155 132" stroke="#EEEEEE" stroke-width="6" stroke-linecap="round"/>
<path d="M194 117L197 105" stroke="#EEEEEE" stroke-width="6" stroke-linecap="round"/>
<path d="M195 131L203 142" stroke="#EEEEEE" stroke-width="6" stroke-linecap="round"/>
<path d="M123 60L149 87" stroke="#EEEEEE" stroke-width="6" stroke-linecap="round"/>
<path d="M67 71L55 103" stroke="#EEEEEE" stroke-width="6" stroke-linecap="round"/>
<path d="M27 72L87 88" stroke="#EEEEEE" stroke-width="6" stroke-linecap="round"/>
<path d="M79 36L97 79" stroke="#EEEEEE" stroke-width="6" stroke-linecap="round"/>
<path d="M120 11L88 21" stroke="#EEEEEE" stroke-width="6" stroke-linecap="round"/>
<circle cx="38.5" cy="38.5" r="6.5" stroke="#A2A2A2" stroke-width="4"/>
<circle cx="69.5" cy="63.5" r="6.5" stroke="#A2A2A2" stroke-width="4"/>
<circle cx="127.5" cy="8.5" r="6.5" stroke="#A2A2A2" stroke-width="4"/>
<circle cx="154.5" cy="92.5" r="6.5" stroke="#A2A2A2" stroke-width="4"/>
<circle cx="112.5" cy="124.5" r="6.5" stroke="#A2A2A2" stroke-width="4"/>
<circle cx="190.5" cy="124.5" r="6.5" stroke="#A2A2A2" stroke-width="4"/>
<circle cx="200" cy="93" r="10" stroke="#A2A2A2" stroke-width="6"/>
<circle cx="115" cy="51" r="10" stroke="#A2A2A2" stroke-width="6"/>
<circle cx="15" cy="68" r="15" fill="#333333"/>
<circle cx="75" cy="25" r="15" fill="#333333"/>
<circle cx="163" cy="38" r="15" fill="#333333"/>
<circle cx="101" cy="90" r="15" fill="#333333"/>
<circle cx="156" cy="131" r="15" fill="#333333"/>
</svg>
